<svg width="103" height="80" viewBox="0 0 103 80" fill="none" xmlns="http://www.w3.org/2000/svg">
<path d="M0.625786 27.4536C0.824471 26.2487 0.991364 25.0365 1.22779 23.8372C3.54443 12.0799 12.9878 3.09337 25.5505 0.56395C29.1944 -0.169273 32.8561 -0.00162506 36.5198 0.0646973C38.1848 0.0941772 39.6292 1.74668 39.6789 3.55946C39.7444 5.95256 39.7544 8.35118 39.6789 10.7443C39.6113 12.92 37.9126 14.3146 35.5383 14.344C32.868 14.3772 30.1878 14.1727 27.5552 14.8801C21.1736 16.5971 16.4767 22.0852 16.278 28.231C16.2343 29.6016 16.2005 31.0165 16.5144 32.3411C17.033 34.5371 19.1967 36.1085 21.6265 36.1527C26.1943 36.2356 30.764 36.2467 35.3317 36.2246C38.5881 36.208 41.4551 37.0573 43.8353 39.1648C46.1738 41.2337 47.4573 43.7576 47.4672 46.766C47.493 54.2879 47.505 61.8117 47.4652 69.3336C47.4354 74.7241 42.3889 79.5029 36.5794 79.5527C28.2685 79.6245 19.9576 79.619 11.6467 79.5527C6.27434 79.5103 1.47813 75.3744 0.848312 70.4372C0.814537 70.17 0.703278 69.9103 0.627777 69.6468V27.4554L0.625786 27.4536ZM102.351 46.0622C102.278 45.8633 102.163 45.6698 102.135 45.4653C101.803 42.9138 100.512 40.8321 98.5227 39.0911C96.1544 37.0167 93.3053 36.208 90.0926 36.2227C85.5249 36.243 80.9572 36.2393 76.3914 36.149C73.7072 36.0956 71.4502 34.1686 71.1105 31.7147C70.6575 28.4576 70.9773 25.265 72.686 22.3266C75.2272 17.9586 79.0796 15.1749 84.4639 14.5264C86.5183 14.2796 88.6223 14.3864 90.7026 14.3367C92.6179 14.2906 94.3206 12.885 94.3722 11.1127C94.4477 8.44514 94.4437 5.77202 94.3643 3.10442C94.3146 1.44086 92.7033 0.0757523 90.9032 0.0296936C89.4469 -0.00714874 87.9905 0.0260086 86.5342 0.00759125C80.826 -0.0661011 75.551 1.35244 70.7111 4.10109C61.2637 9.46207 55.9351 17.3875 55.6192 27.5604C55.186 41.4842 55.4781 55.4283 55.5238 69.365C55.5417 74.772 60.6121 79.5011 66.4414 79.5527C74.649 79.6208 82.8586 79.6153 91.0681 79.5582C96.2935 79.5213 100.706 76.1445 101.954 71.4099C102.077 70.9419 102.218 70.4777 102.351 70.0116C102.351 62.0272 102.351 54.0447 102.351 46.0604V46.0622Z" fill="white"/>
</svg>
