<svg width="45" height="35" viewBox="0 0 45 35" fill="none" xmlns="http://www.w3.org/2000/svg">
<path d="M44.4741 22.9399C44.3879 23.4629 44.3154 23.9892 44.2128 24.5098C43.2072 29.6135 39.1079 33.5145 33.6545 34.6124C32.0728 34.9307 30.4833 34.858 28.8929 34.8292C28.1701 34.8164 27.5431 34.099 27.5216 33.3121C27.4931 32.2733 27.4888 31.2321 27.5216 30.1933C27.5509 29.2488 28.2883 28.6434 29.3189 28.6306C30.4781 28.6163 31.6416 28.705 32.7843 28.3979C35.5545 27.6526 37.5934 25.2703 37.6796 22.6025C37.6986 22.0075 37.7133 21.3933 37.577 20.8183C37.3519 19.8651 36.4127 19.1829 35.3579 19.1637C33.3751 19.1277 31.3914 19.1229 29.4086 19.1325C27.9951 19.1397 26.7505 18.7711 25.7173 17.8562C24.7022 16.9581 24.145 15.8625 24.1407 14.5566C24.1295 11.2914 24.1243 8.02543 24.1416 4.76023C24.1545 2.42029 26.3452 0.345851 28.867 0.324259C32.4747 0.29307 36.0824 0.295469 39.69 0.324259C42.0221 0.342652 44.1041 2.13799 44.3775 4.2812C44.3922 4.39716 44.4405 4.50992 44.4732 4.62428V22.9391L44.4741 22.9399ZM0.316101 14.8621C0.348012 14.9485 0.398035 15.0324 0.410109 15.1212C0.55414 16.2288 1.11474 17.1325 1.97806 17.8882C3.00612 18.7887 4.24289 19.1397 5.63749 19.1333C7.62028 19.1245 9.60308 19.1261 11.585 19.1653C12.7502 19.1885 13.73 20.025 13.8774 21.0902C14.0741 22.5041 13.9352 23.89 13.1935 25.1655C12.0904 27.0616 10.4181 28.27 8.08084 28.5515C7.18905 28.6586 6.27571 28.6123 5.37271 28.6338C4.5413 28.6538 3.80217 29.264 3.77974 30.0333C3.74697 31.1913 3.7487 32.3517 3.78319 33.5097C3.80476 34.2318 4.50421 34.8244 5.2856 34.8444C5.91779 34.8604 6.54997 34.846 7.18215 34.854C9.66 34.8859 11.9498 34.2702 14.0508 33.077C18.1518 30.7499 20.4649 27.3095 20.602 22.8936C20.7901 16.8494 20.6633 10.7964 20.6434 4.74663C20.6357 2.3995 18.4347 0.34665 15.9042 0.324259C12.3414 0.294669 8.77771 0.297069 5.21402 0.321859C2.94575 0.337854 1.03022 1.80371 0.488593 3.85896C0.435121 4.06208 0.373886 4.26361 0.316101 4.46594C0.316101 7.93186 0.316101 11.397 0.316101 14.8629V14.8621Z" fill="white"/>
</svg>
